<?xml version="1.0" standalone="no"?>
<!DOCTYPE svg PUBLIC "-//W3C//DTD SVG 20010904//EN"
 "http://www.w3.org/TR/2001/REC-SVG-20010904/DTD/svg10.dtd">
<svg version="1.0" xmlns="http://www.w3.org/2000/svg"
 width="1240.000000pt" height="1240.000000pt" viewBox="0 0 1240.000000 1240.000000"
 preserveAspectRatio="xMidYMid meet">
<metadata>
Created by potrace 1.14, written by Peter Selinger 2001-2017
</metadata>
<g transform="translate(0.000000,1240.000000) scale(0.100000,-0.100000)"
fill="#000000" stroke="none">
<path d="M5978 12356 c-1 -2 -64 -6 -138 -10 -74 -4 -148 -8 -165 -11 -16 -2
-61 -6 -100 -10 -66 -5 -385 -49 -431 -59 -12 -2 -37 -7 -55 -10 -19 -3 -43
-7 -54 -10 -11 -2 -40 -7 -65 -12 -47 -8 -55 -10 -67 -14 -5 -1 -11 -2 -14 -2
-4 1 -22 -3 -40 -9 -19 -6 -45 -12 -59 -15 -14 -3 -103 -25 -198 -50 -254 -65
-569 -173 -782 -265 -69 -31 -78 -34 -193 -88 -59 -28 -111 -52 -115 -53 -4
-1 -25 -13 -47 -25 -22 -13 -58 -32 -80 -43 -22 -10 -67 -35 -100 -54 -33 -20
-67 -39 -75 -42 -36 -17 -315 -188 -318 -196 -2 -4 -8 -8 -13 -8 -11 0 -106
-62 -130 -85 -9 -8 -21 -15 -27 -15 -7 0 -12 -4 -12 -10 0 -5 -4 -10 -9 -10
-18 0 -351 -252 -413 -312 -10 -10 -20 -18 -23 -18 -3 0 -13 -8 -23 -17 -10
-10 -45 -40 -77 -68 -199 -171 -478 -454 -660 -670 -22 -26 -47 -56 -55 -65
-8 -10 -28 -35 -45 -56 -16 -21 -38 -46 -47 -56 -10 -10 -18 -22 -18 -27 0 -5
-4 -11 -8 -13 -4 -1 -23 -24 -42 -50 -18 -27 -37 -48 -42 -48 -4 0 -8 -7 -8
-15 0 -9 -7 -18 -15 -21 -8 -4 -15 -11 -15 -18 0 -6 -16 -31 -35 -54 -19 -24
-37 -53 -40 -63 -4 -11 -10 -17 -15 -14 -5 3 -12 -5 -16 -17 -4 -13 -9 -25
-13 -28 -11 -9 -91 -131 -91 -139 0 -4 -9 -16 -20 -26 -11 -10 -17 -22 -14
-26 3 -5 0 -9 -5 -9 -6 0 -11 -7 -11 -15 0 -8 -4 -15 -10 -15 -5 0 -10 -7 -10
-15 0 -8 -5 -15 -12 -15 -6 0 -8 -3 -5 -6 3 -4 -3 -18 -13 -32 -11 -13 -20
-30 -20 -38 0 -7 -4 -14 -8 -16 -10 -3 -110 -180 -114 -200 -2 -7 -6 -15 -9
-18 -6 -5 -121 -241 -134 -275 -5 -11 -7 -23 -7 -27 1 -5 -3 -8 -8 -8 -6 0
-10 -9 -10 -20 0 -11 -4 -20 -10 -20 -5 0 -9 -3 -8 -7 1 -7 -10 -39 -31 -88
-27 -63 -46 -110 -46 -115 0 -3 -4 -11 -8 -17 -5 -7 -5 -13 0 -13 4 0 3 -4 -3
-8 -6 -4 -30 -63 -54 -132 -24 -69 -48 -136 -53 -150 -6 -14 -11 -29 -12 -35
-2 -5 -19 -62 -38 -125 -48 -156 -82 -283 -117 -435 -78 -341 -123 -652 -147
-1015 -14 -214 -8 -739 12 -905 2 -16 6 -60 10 -97 3 -37 8 -77 10 -90 2 -13
6 -50 10 -83 4 -33 13 -97 21 -143 8 -45 17 -99 20 -120 3 -20 18 -100 34
-177 158 -770 478 -1534 908 -2169 106 -157 135 -199 142 -206 3 -3 25 -32 50
-65 24 -33 50 -66 57 -75 6 -8 35 -44 63 -80 131 -165 265 -313 462 -512 81
-81 149 -148 151 -148 2 0 28 -23 58 -51 30 -28 106 -94 169 -147 63 -53 126
-107 140 -119 14 -13 28 -23 32 -23 3 0 13 -6 20 -13 40 -39 244 -187 258
-187 4 0 10 -4 12 -8 5 -14 417 -282 432 -282 2 0 46 -24 97 -53 315 -178 706
-348 1069 -465 118 -38 229 -71 254 -76 6 -2 31 -8 56 -15 25 -7 52 -14 60
-16 8 -2 44 -11 80 -20 36 -9 76 -19 90 -21 14 -3 31 -7 39 -10 8 -2 30 -7 50
-10 20 -3 52 -9 71 -14 62 -16 349 -62 463 -75 26 -3 66 -7 90 -10 208 -24
336 -30 647 -30 268 0 442 6 560 19 19 3 64 7 100 11 36 3 79 8 95 10 17 2 53
7 80 10 487 59 1092 226 1599 441 152 65 401 185 531 257 160 88 173 96 212
120 21 13 81 51 133 83 95 59 351 234 375 257 7 6 23 19 35 27 12 8 28 20 34
25 6 6 29 24 51 40 21 17 51 40 65 52 14 12 59 50 100 83 200 164 529 489 691
683 13 16 35 40 49 55 14 15 59 70 100 122 41 52 79 100 85 107 23 28 35 44
116 158 47 66 104 147 125 180 21 33 42 62 47 63 4 2 7 7 7 12 0 5 31 57 68
117 38 59 97 160 131 223 34 63 66 122 71 130 46 77 243 500 233 500 -3 0 -1
6 4 12 5 7 20 40 33 73 13 33 27 64 32 69 4 6 8 19 8 31 0 12 4 25 9 31 13 14
161 463 176 534 2 8 15 62 30 120 15 58 29 114 31 124 2 11 15 72 28 135 14
64 27 132 30 151 3 19 8 46 11 60 8 36 33 206 40 270 3 30 8 66 10 80 4 25 9
81 25 265 8 108 6 777 -4 860 -5 49 -15 146 -21 215 -2 19 -6 53 -9 75 -3 22
-8 60 -11 85 -3 25 -7 56 -10 70 -2 14 -7 42 -10 63 -13 92 -17 117 -31 187
-9 41 -17 84 -20 95 -20 101 -31 148 -60 265 -37 151 -109 392 -155 520 -17
47 -32 90 -33 95 -2 6 -7 19 -11 30 -4 11 -24 61 -43 110 -19 50 -42 108 -52
130 -10 22 -34 77 -54 123 -51 117 -199 416 -208 420 -5 2 -8 8 -8 12 0 5 -32
64 -72 132 -39 68 -76 132 -82 143 -43 81 -308 460 -422 605 -50 63 -238 285
-279 330 -229 248 -590 583 -759 705 -15 11 -40 30 -54 43 -15 12 -45 35 -67
50 -22 15 -42 30 -45 33 -6 8 -301 206 -355 239 -262 159 -564 319 -769 406
-44 19 -99 43 -121 54 -45 21 -292 115 -405 153 -159 55 -509 154 -600 171
-14 2 -68 14 -120 25 -117 25 -364 67 -485 81 -140 17 -154 18 -245 25 -47 4
-101 9 -120 11 -42 5 -627 14 -632 10z"/>
</g>
</svg>
